<?xml version="1.0" encoding="UTF-8" standalone="no"?>
<!DOCTYPE svg PUBLIC "-//W3C//DTD SVG 1.1//EN" "http://www.w3.org/Graphics/SVG/1.1/DTD/svg11.dtd">
<svg xmlns="http://www.w3.org/2000/svg" version="1.1" viewBox="0.00 0.00 1000.00 1000.00">
<path fill="#f0dbac" d="
  M 503.22 390.75
  Q 502.53 388.88 501.81 390.75
  Q 478.95 450.60 455.97 510.48
  Q 455.05 512.88 451.49 513.71
  Q 440.82 516.19 430.03 513.53
  A 0.74 0.74 0.0 0 1 429.51 512.56
  Q 468.03 407.35 506.67 302.00
  C 507.80 298.91 508.02 297.33 511.88 297.35
  Q 531.68 297.43 550.73 297.42
  A 2.98 2.97 -10.2 0 1 553.52 299.35
  Q 613.15 459.59 672.51 619.48
  C 673.07 620.98 675.09 621.98 676.81 621.97
  Q 699.72 621.83 726.24 617.55
  C 766.86 611.00 818.72 588.91 804.76 536.50
  Q 803.67 532.43 800.99 524.26
  A 1.77 1.76 -46.9 0 1 800.96 523.27
  C 803.11 514.68 811.84 512.87 818.69 517.91
  Q 820.65 519.35 822.90 522.04
  C 846.34 550.03 854.08 587.63 841.67 621.94
  C 822.76 674.21 755.03 695.57 705.25 693.86
  C 701.52 693.73 700.95 695.29 702.12 698.49
  C 718.53 743.65 733.61 789.45 755.84 832.19
  C 761.14 842.38 767.79 853.02 775.70 860.59
  C 795.87 879.87 822.80 879.91 849.08 879.25
  A 2.36 2.35 -1.2 0 1 851.50 881.56
  L 852.00 906.31
  Q 852.06 909.18 849.19 909.18
  L 602.86 908.60
  A 1.50 1.49 0.2 0 1 601.37 907.11
  L 601.33 882.02
  A 2.56 2.56 0.0 0 1 603.97 879.45
  C 612.40 879.70 622.54 880.42 629.99 879.07
  C 658.64 873.88 667.57 845.69 661.99 820.25
  C 659.48 808.82 654.88 798.71 650.71 788.07
  C 637.02 753.10 624.72 718.30 614.80 690.99
  C 614.03 688.88 613.25 687.87 610.88 687.51
  Q 560.14 679.67 510.25 667.53
  Q 450.30 652.94 390.26 637.27
  A 1.95 1.95 0.0 0 0 387.82 639.12
  C 387.28 670.30 380.04 701.55 365.75 729.34
  C 346.98 765.84 313.98 794.64 273.76 804.55
  C 238.26 813.30 203.50 803.38 178.32 777.54
  C 154.08 752.66 143.19 717.93 151.13 683.66
  C 163.40 630.73 210.68 597.53 263.18 592.23
  C 270.51 591.49 276.25 590.98 282.81 591.68
  Q 284.26 591.83 284.26 593.29
  L 284.26 629.98
  Q 284.26 630.43 283.91 630.70
  Q 281.30 632.73 278.27 632.62
  C 231.42 630.99 184.79 661.00 184.11 711.74
  Q 184.07 715.07 185.33 721.11
  C 190.99 748.34 214.86 761.97 241.26 759.34
  C 295.33 753.96 306.31 672.45 308.14 631.74
  Q 309.34 605.06 308.01 572.00
  C 307.96 570.61 307.24 569.39 307.24 567.96
  Q 307.24 464.98 307.23 362.00
  Q 307.23 352.63 307.46 342.00
  Q 308.37 299.26 308.29 256.51
  Q 308.29 256.00 307.80 255.89
  Q 304.06 254.98 301.78 254.91
  C 247.38 253.18 201.76 215.98 195.14 161.02
  C 188.23 103.67 224.69 55.92 280.75 44.92
  Q 294.31 42.26 297.64 53.50
  C 299.56 59.96 296.08 65.22 289.51 66.25
  C 252.88 72.01 234.46 93.38 232.08 129.95
  Q 231.22 143.20 235.30 155.00
  C 245.58 184.78 279.08 196.12 307.71 196.16
  A 1.55 1.54 2.4 0 0 309.25 194.75
  C 312.56 155.65 324.71 112.28 348.95 80.58
  Q 370.11 52.91 402.60 37.39
  Q 429.92 24.33 459.27 24.65
  C 498.70 25.09 533.29 47.31 552.05 81.67
  C 560.69 97.50 563.52 112.42 563.38 129.70
  C 563.02 172.38 539.41 209.41 502.84 230.10
  Q 463.15 252.55 415.72 250.34
  Q 413.65 250.25 413.83 248.41
  Q 413.96 247.13 413.96 247.07
  Q 413.98 224.30 413.94 201.45
  A 0.77 0.75 -3.8 0 1 414.62 200.69
  Q 421.86 199.88 429.22 199.05
  Q 445.98 197.19 461.68 191.12
  Q 499.12 176.64 510.80 139.29
  Q 513.50 130.64 513.42 120.74
  C 513.25 100.80 503.86 84.89 485.06 76.69
  C 458.45 65.09 432.89 74.43 416.94 97.75
  Q 406.11 113.58 400.40 133.24
  Q 393.60 156.66 391.63 180.99
  C 391.44 183.25 391.06 185.50 391.01 187.69
  Q 390.00 228.77 389.99 241.50
  Q 389.90 401.15 389.96 560.81
  C 389.96 568.65 390.34 577.93 390.31 586.51
  A 1.76 1.75 -82.8 0 0 391.62 588.21
  C 395.49 589.21 400.02 589.53 403.36 589.96
  Q 493.78 601.49 582.99 613.04
  Q 585.69 613.39 584.75 610.83
  L 503.22 390.75
  Z"
/>
</svg>
